<svg xmlns="http://www.w3.org/2000/svg" width="1125" height="1125" viewBox="0 0 1125 1125" version="1.1"><path d="M 185.961 205.500 L 146.007 225.500 183.003 243.994 C 203.352 254.165, 220 262.720, 220 263.005 C 220 263.289, 203.344 271.840, 182.987 282.006 L 145.975 300.491 182.987 318.989 C 203.344 329.163, 220 337.720, 220 338.005 C 220 338.289, 203.352 346.836, 183.003 356.998 L 146.007 375.475 185.253 395.208 L 224.500 414.941 336.254 414.958 L 448.009 414.976 447.996 639.016 L 447.983 863.055 467.741 902.526 C 478.609 924.234, 487.728 941.997, 488.006 941.998 C 488.285 941.999, 496.837 925.344, 507.011 904.987 L 525.509 867.975 543.994 904.987 C 554.160 925.344, 562.713 942, 563 942 C 563.287 942, 571.840 925.344, 582.006 904.987 L 600.491 867.975 618.989 904.987 C 629.163 925.344, 637.715 941.999, 637.994 941.998 C 638.272 941.997, 647.391 924.234, 658.259 902.526 L 678.017 863.055 678.004 639.011 L 677.991 414.967 789.934 415.017 L 901.876 415.067 941.183 395.409 L 980.490 375.750 943 357 L 905.511 338.250 943 319.500 L 980.489 300.750 943 282 L 905.511 263.250 942.988 244.506 L 980.466 225.762 940.983 205.922 L 901.500 186.082 563.707 185.791 L 225.914 185.500 185.961 205.500 M 284.251 243.749 L 338 297.498 391.749 243.749 L 445.498 190 338 190 L 230.502 190 284.251 243.749 M 509.251 243.749 L 563 297.498 616.749 243.749 L 670.498 190 563 190 L 455.502 190 509.251 243.749 M 734.251 243.749 L 788 297.498 841.749 243.749 L 895.498 190 788 190 L 680.502 190 734.251 243.749 M 189.006 208.997 L 155.512 225.750 188.865 242.433 C 207.209 251.608, 222.400 258.933, 222.623 258.711 C 222.845 258.488, 222.909 243.442, 222.764 225.275 L 222.500 192.243 189.006 208.997 M 903 225.500 C 903 243.925, 903.228 259, 903.506 259 C 904.478 259, 970 225.990, 970 225.500 C 970 225.010, 904.478 192, 903.506 192 C 903.228 192, 903 207.075, 903 225.500 M 228 300.746 L 228 407.493 281.500 354 L 335 300.507 281.754 247.253 C 252.468 217.964, 228.393 194, 228.254 194 C 228.114 194, 228 242.036, 228 300.746 M 394.246 247.253 L 341 300.507 394.500 354 L 448 407.493 448 300.746 C 448 242.036, 447.886 194, 447.746 194 C 447.607 194, 423.532 217.964, 394.246 247.253 M 453 300.746 L 453 407.493 506.500 354 L 560 300.507 506.754 247.253 C 477.468 217.964, 453.393 194, 453.254 194 C 453.114 194, 453 242.036, 453 300.746 M 619.246 247.253 L 566 300.507 619.500 354 L 673 407.493 673 300.746 C 673 242.036, 672.886 194, 672.746 194 C 672.607 194, 648.532 217.964, 619.246 247.253 M 678 300.746 L 678 407.493 731.500 354 L 785 300.507 731.754 247.253 C 702.468 217.964, 678.393 194, 678.254 194 C 678.114 194, 678 242.036, 678 300.746 M 844.246 247.253 L 791 300.507 844.500 354 L 898 407.493 898 300.746 C 898 242.036, 897.886 194, 897.746 194 C 897.607 194, 873.532 217.964, 844.246 247.253 M 189.006 283.997 L 155.512 300.750 188.865 317.433 C 207.209 326.608, 222.400 333.933, 222.623 333.711 C 222.845 333.488, 222.909 318.442, 222.764 300.275 L 222.500 267.243 189.006 283.997 M 903 300.500 C 903 318.925, 903.228 334, 903.506 334 C 904.478 334, 970 300.990, 970 300.500 C 970 300.010, 904.478 267, 903.506 267 C 903.228 267, 903 282.075, 903 300.500 M 284 357.500 L 230.507 411 338 411 L 445.493 411 392 357.500 C 362.579 328.075, 338.279 304, 338 304 C 337.721 304, 313.421 328.075, 284 357.500 M 509 357.500 L 455.507 411 563 411 L 670.493 411 617 357.500 C 587.579 328.075, 563.279 304, 563 304 C 562.721 304, 538.421 328.075, 509 357.500 M 734 357.500 L 680.507 411 788 411 L 895.493 411 842 357.500 C 812.579 328.075, 788.279 304, 788 304 C 787.721 304, 763.421 328.075, 734 357.500 M 189.006 358.997 L 155.512 375.750 188.865 392.433 C 207.209 401.608, 222.400 408.933, 222.623 408.711 C 222.845 408.488, 222.909 393.442, 222.764 375.275 L 222.500 342.243 189.006 358.997 M 903 375.500 C 903 393.925, 903.228 409, 903.506 409 C 904.478 409, 970 375.990, 970 375.500 C 970 375.010, 904.478 342, 903.506 342 C 903.228 342, 903 357.075, 903 375.500 M 509 468.500 L 562.493 522 615.747 468.754 C 645.036 439.468, 669 415.393, 669 415.254 C 669 415.114, 620.964 415, 562.254 415 L 455.507 415 509 468.500 M 618.999 471.501 L 565.505 525.002 619.252 578.750 L 673 632.498 673 525.249 C 673 466.262, 672.886 418, 672.746 418 C 672.607 418, 648.421 442.076, 618.999 471.501 M 453 525 L 453 631.498 506.249 578.249 L 559.498 525 506.249 471.751 L 453 418.502 453 525 M 508.500 582 L 454.507 636 562.500 636 L 670.493 636 616.500 582 C 586.804 552.300, 562.504 528, 562.500 528 C 562.496 528, 538.196 552.300, 508.500 582 M 509.251 693.749 L 563 747.498 616.749 693.749 L 670.498 640 563 640 L 455.502 640 509.251 693.749 M 453 750.746 L 453 857.493 506.500 804 L 560 750.507 506.754 697.253 C 477.468 667.964, 453.393 644, 453.254 644 C 453.114 644, 453 692.036, 453 750.746 M 619.246 697.253 L 566 750.507 619.500 804 L 673 857.493 673 750.746 C 673 692.036, 672.886 644, 672.746 644 C 672.607 644, 648.532 667.964, 619.246 697.253 M 509 807.500 L 455.507 861 563 861 L 670.493 861 617 807.500 C 587.579 778.075, 563.279 754, 563 754 C 562.721 754, 538.421 778.075, 509 807.500 M 471.122 899.244 L 488.250 933.488 505.071 899.994 C 514.322 881.572, 521.916 866.163, 521.946 865.750 C 521.976 865.337, 506.699 865, 487.997 865 L 453.994 865 471.122 899.244 M 546.122 899.244 L 563.250 933.488 580.071 899.994 C 589.322 881.572, 596.916 866.163, 596.946 865.750 C 596.976 865.337, 581.699 865, 562.997 865 L 528.994 865 546.122 899.244 M 621.122 899.244 L 638.250 933.488 655.071 899.994 C 664.322 881.572, 671.916 866.163, 671.946 865.750 C 671.976 865.337, 656.699 865, 637.997 865 L 603.994 865 621.122 899.244" stroke="none" fill="#fc0b0b" fill-rule="evenodd"/><path d="M 0 562.501 L 0 1125.002 562.750 1124.751 L 1125.500 1124.500 1125.751 562.250 L 1126.002 0 563.001 0 L 0 0 0 562.501 M 0.496 563 C 0.496 872.375, 0.611 998.937, 0.750 844.250 C 0.889 689.562, 0.889 436.437, 0.750 281.750 C 0.611 127.062, 0.496 253.625, 0.496 563 M 185.961 205.500 L 146.007 225.500 183.003 243.994 C 203.352 254.165, 220 262.720, 220 263.005 C 220 263.289, 203.344 271.840, 182.987 282.006 L 145.975 300.491 182.987 318.989 C 203.344 329.163, 220 337.720, 220 338.005 C 220 338.289, 203.352 346.836, 183.003 356.998 L 146.007 375.475 185.253 395.208 L 224.500 414.941 336.254 414.958 L 448.009 414.976 447.996 639.016 L 447.983 863.055 467.741 902.526 C 478.609 924.234, 487.728 941.997, 488.006 941.998 C 488.285 941.999, 496.837 925.344, 507.011 904.987 L 525.509 867.975 543.994 904.987 C 554.160 925.344, 562.713 942, 563 942 C 563.287 942, 571.840 925.344, 582.006 904.987 L 600.491 867.975 618.989 904.987 C 629.163 925.344, 637.715 941.999, 637.994 941.998 C 638.272 941.997, 647.391 924.234, 658.259 902.526 L 678.017 863.055 678.004 639.011 L 677.991 414.967 789.934 415.017 L 901.876 415.067 941.183 395.409 L 980.490 375.750 943 357 L 905.511 338.250 943 319.500 L 980.489 300.750 943 282 L 905.511 263.250 942.988 244.506 L 980.466 225.762 940.983 205.922 L 901.500 186.082 563.707 185.791 L 225.914 185.500 185.961 205.500 M 284.251 243.749 L 338 297.498 391.749 243.749 L 445.498 190 338 190 L 230.502 190 284.251 243.749 M 509.251 243.749 L 563 297.498 616.749 243.749 L 670.498 190 563 190 L 455.502 190 509.251 243.749 M 734.251 243.749 L 788 297.498 841.749 243.749 L 895.498 190 788 190 L 680.502 190 734.251 243.749 M 189.006 208.997 L 155.512 225.750 188.865 242.433 C 207.209 251.608, 222.400 258.933, 222.623 258.711 C 222.845 258.488, 222.909 243.442, 222.764 225.275 L 222.500 192.243 189.006 208.997 M 903 225.500 C 903 243.925, 903.228 259, 903.506 259 C 904.478 259, 970 225.990, 970 225.500 C 970 225.010, 904.478 192, 903.506 192 C 903.228 192, 903 207.075, 903 225.500 M 228 300.746 L 228 407.493 281.500 354 L 335 300.507 281.754 247.253 C 252.468 217.964, 228.393 194, 228.254 194 C 228.114 194, 228 242.036, 228 300.746 M 394.246 247.253 L 341 300.507 394.500 354 L 448 407.493 448 300.746 C 448 242.036, 447.886 194, 447.746 194 C 447.607 194, 423.532 217.964, 394.246 247.253 M 453 300.746 L 453 407.493 506.500 354 L 560 300.507 506.754 247.253 C 477.468 217.964, 453.393 194, 453.254 194 C 453.114 194, 453 242.036, 453 300.746 M 619.246 247.253 L 566 300.507 619.500 354 L 673 407.493 673 300.746 C 673 242.036, 672.886 194, 672.746 194 C 672.607 194, 648.532 217.964, 619.246 247.253 M 678 300.746 L 678 407.493 731.500 354 L 785 300.507 731.754 247.253 C 702.468 217.964, 678.393 194, 678.254 194 C 678.114 194, 678 242.036, 678 300.746 M 844.246 247.253 L 791 300.507 844.500 354 L 898 407.493 898 300.746 C 898 242.036, 897.886 194, 897.746 194 C 897.607 194, 873.532 217.964, 844.246 247.253 M 189.006 283.997 L 155.512 300.750 188.865 317.433 C 207.209 326.608, 222.400 333.933, 222.623 333.711 C 222.845 333.488, 222.909 318.442, 222.764 300.275 L 222.500 267.243 189.006 283.997 M 903 300.500 C 903 318.925, 903.228 334, 903.506 334 C 904.478 334, 970 300.990, 970 300.500 C 970 300.010, 904.478 267, 903.506 267 C 903.228 267, 903 282.075, 903 300.500 M 284 357.500 L 230.507 411 338 411 L 445.493 411 392 357.500 C 362.579 328.075, 338.279 304, 338 304 C 337.721 304, 313.421 328.075, 284 357.500 M 509 357.500 L 455.507 411 563 411 L 670.493 411 617 357.500 C 587.579 328.075, 563.279 304, 563 304 C 562.721 304, 538.421 328.075, 509 357.500 M 734 357.500 L 680.507 411 788 411 L 895.493 411 842 357.500 C 812.579 328.075, 788.279 304, 788 304 C 787.721 304, 763.421 328.075, 734 357.500 M 189.006 358.997 L 155.512 375.750 188.865 392.433 C 207.209 401.608, 222.400 408.933, 222.623 408.711 C 222.845 408.488, 222.909 393.442, 222.764 375.275 L 222.500 342.243 189.006 358.997 M 903 375.500 C 903 393.925, 903.228 409, 903.506 409 C 904.478 409, 970 375.990, 970 375.500 C 970 375.010, 904.478 342, 903.506 342 C 903.228 342, 903 357.075, 903 375.500 M 509 468.500 L 562.493 522 615.747 468.754 C 645.036 439.468, 669 415.393, 669 415.254 C 669 415.114, 620.964 415, 562.254 415 L 455.507 415 509 468.500 M 618.999 471.501 L 565.505 525.002 619.252 578.750 L 673 632.498 673 525.249 C 673 466.262, 672.886 418, 672.746 418 C 672.607 418, 648.421 442.076, 618.999 471.501 M 453 525 L 453 631.498 506.249 578.249 L 559.498 525 506.249 471.751 L 453 418.502 453 525 M 508.500 582 L 454.507 636 562.500 636 L 670.493 636 616.500 582 C 586.804 552.300, 562.504 528, 562.500 528 C 562.496 528, 538.196 552.300, 508.500 582 M 509.251 693.749 L 563 747.498 616.749 693.749 L 670.498 640 563 640 L 455.502 640 509.251 693.749 M 453 750.746 L 453 857.493 506.500 804 L 560 750.507 506.754 697.253 C 477.468 667.964, 453.393 644, 453.254 644 C 453.114 644, 453 692.036, 453 750.746 M 619.246 697.253 L 566 750.507 619.500 804 L 673 857.493 673 750.746 C 673 692.036, 672.886 644, 672.746 644 C 672.607 644, 648.532 667.964, 619.246 697.253 M 509 807.500 L 455.507 861 563 861 L 670.493 861 617 807.500 C 587.579 778.075, 563.279 754, 563 754 C 562.721 754, 538.421 778.075, 509 807.500 M 471.122 899.244 L 488.250 933.488 505.071 899.994 C 514.322 881.572, 521.916 866.163, 521.946 865.750 C 521.976 865.337, 506.699 865, 487.997 865 L 453.994 865 471.122 899.244 M 546.122 899.244 L 563.250 933.488 580.071 899.994 C 589.322 881.572, 596.916 866.163, 596.946 865.750 C 596.976 865.337, 581.699 865, 562.997 865 L 528.994 865 546.122 899.244 M 621.122 899.244 L 638.250 933.488 655.071 899.994 C 664.322 881.572, 671.916 866.163, 671.946 865.750 C 671.976 865.337, 656.699 865, 637.997 865 L 603.994 865 621.122 899.244" stroke="none" fill="#fcfbfb" fill-rule="evenodd"/></svg>